<?xml version="1.0" standalone="no"?>
<!DOCTYPE svg PUBLIC "-//W3C//DTD SVG 20010904//EN"
 "http://www.w3.org/TR/2001/REC-SVG-20010904/DTD/svg10.dtd">
<svg version="1.0" xmlns="http://www.w3.org/2000/svg"
 width="16.000000pt" height="16.000000pt" viewBox="0 0 16.000000 16.000000"
 preserveAspectRatio="xMidYMid meet">
<metadata>
Created by potrace 1.11, written by Peter Selinger 2001-2013
</metadata>
<g transform="translate(0.000000,16.000000) scale(0.010667,-0.010667)"
fill="#000000" stroke="none">
<path d="M777 1373 c-1 -1 -31 -3 -66 -5 -34 -2 -65 -6 -68 -10 -2 -5 -13 -4
-23 2 -23 13 -40 13 -20 0 10 -6 3 -9 -25 -10 -64 -1 -75 -3 -75 -12 0 -4 -10
-8 -22 -8 -37 0 -120 -44 -159 -84 -35 -35 -62 -82 -90 -156 -9 -22 -14 -78
-14 -155 0 -105 3 -125 22 -163 24 -44 30 -82 14 -82 -5 0 -23 -14 -40 -32
-49 -51 -59 -142 -20 -204 21 -35 75 -74 102 -74 9 0 26 -23 41 -56 33 -71
110 -144 197 -186 l69 -33 0 -52 0 -53 155 0 155 0 0 54 0 55 67 32 c87 43
162 113 196 183 18 36 34 56 45 56 28 0 78 36 100 71 49 80 27 183 -50 233
l-28 18 24 29 c14 16 28 49 32 74 7 51 -1 212 -14 265 -5 20 -8 44 -6 54 4 25
6 85 5 115 -1 20 -3 22 -16 11 -22 -18 -39 1 -37 42 1 18 -3 40 -8 48 -5 8
-10 10 -10 4 0 -12 -50 -38 -58 -29 -3 3 1 5 8 5 9 0 11 3 4 10 -19 19 -372
58 -387 43z"/>
</g>
</svg>
